# xmcd
#
# Track frame offsets:
#	150
#	21390
#	49242
#	72501
#	104078
#	128131
#	153557
#	174420
#	198639
#
# Disc length: 3072 seconds
#
# Revision: 0
# Processed by: cddbd v1.5.2PL0 Copyright (c) Steve Scherf et al.
# Submitted via: audiograbber 1.83.01
#
DISCID=870bfe09
DTITLE=Julian Sas - Ressurection
DYEAR=2007
DGENRE=Bluesrock
TTITLE0=Moving To Survive
TTITLE1=Burnin' Soul
TTITLE2=Runnin' All My Life
TTITLE3=All I Know
TTITLE4=Ain't No Change
TTITLE5=Ressurection
TTITLE6=Stranded
TTITLE7=Junkies Blues
TTITLE8=Wrong Way Down
EXTD=Julian Sas - Guitar, vocals and bluesharp\nTenny Tahamata - Bassguitar\nRo
EXTD=b Heijne - Drums
EXTT0=
EXTT1=
EXTT2=
EXTT3=
EXTT4=
EXTT5=
EXTT6=
EXTT7=
EXTT8=
PLAYORDER=
